# xmcd
#
# Track frame offsets:
#	225
#	22822
#	44535
#	63756
#	84395
#	99917
#	120630
#	140195
#	156908
#	177455
#	199176
#	219068
#	237616
#	257400
#	283219
#
# Disc length: 4058 seconds
#
# Revision: 3
# Processed by: cddbd v1.4PL0 Copyright (c) Steve Scherf et al.
# Submitted via: AudioConverter v4.0 Copyright (c) Dennis Rebentrost
#
DISCID=d30fd70f,d60fd70f
DTITLE=Celine Dion - Gold
DYEAR=1900
DGENRE=
TTITLE0=I Just Walk Away
TTITLE1=Think Twice
TTITLE2=Pour Que Tu Maimes Encore
TTITLE3=Je Sais Pas
TTITLE4=Cherche Encore
TTITLE5=Because You Loved Me
TTITLE6=Falling Into You
TTITLE7=(You Make Me Feel Like A) Natural Woman
TTITLE8=Make You Happy
TTITLE9=Only The Road
TTITLE10=No Living Without You
TTITLE11=Beauty And The Beast
TTITLE12=When I Fall In Love
TTITLE13=The Power Of Love
TTITLE14=Mejor Decir Adios
EXTD=
EXTT0=
EXTT1=
EXTT2=
EXTT3=
EXTT4=
EXTT5=
EXTT6=
EXTT7=
EXTT8=
EXTT9=
EXTT10=
EXTT11=
EXTT12=
EXTT13=
EXTT14=
PLAYORDER=
